<?xml version="1.0" encoding="utf-8"?>
<svg width="793.701px" height="660px" version="1.1" style="shape-rendering:geometricPrecision; text-rendering:geometricPrecision; image-rendering:optimizeQuality; fill-rule:evenodd; clip-rule:evenodd" preserveAspectRatio="xMinYMin" viewBox="0 0 788 660" xmlns="http://www.w3.org/2000/svg">
  <defs>
    <style type="text/css">
   
    .fil2 {fill:#FEFEFE}
    .fil1 {fill:#2D664D}
    .fil0 {fill:#2D664D;fill-rule:nonzero}
   
  </style>
  </defs>
  <g id="Layer_x0020_1" transform="matrix(0.065317, 0, 0, 0.065317, -294.581146, -643.916992)" style="">
    <g id="_2271294688">
      <path class="fil0" d="M5413.08 12656.94l-66.98 106.86c-95.79,-28.93 -169.08,-2.94 -219.77,77.99 -38.23,60.99 -43,123.1 -14.42,186.32 25.03,54.85 70.55,101.96 136.58,141.3 66.02,39.38 129.75,57.42 191.21,54.11 70.73,-4.02 125.19,-36.51 163.39,-97.51 28.58,-45.58 35.56,-91.92 20.91,-139.01 -13.15,-43.07 -42.26,-81.15 -87.31,-114.29l65.35 -104.29c72.52,49.51 117.23,111.97 134.18,187.41 16.91,75.47 2.36,149.96 -43.71,223.48 -55.71,88.9 -132.97,141.12 -231.75,156.59 -93.87,15.29 -186.91,-4.58 -279.24,-59.62 -92.91,-55.37 -153.8,-127.3 -182.65,-215.74 -30.34,-92.44 -17.66,-183.15 38.05,-272.04 43.94,-70.12 99.39,-117.66 166.45,-142.68 69.83,-25.67 139.74,-21.96 209.71,11.12z"/>
      <polygon class="fil0" points="6155.87,12517.4 5613.33,12036.03 5699.73,11943.39 6160.2,12351.93 6411.11,12082.89 6493.18,12155.7 "/>
      <polygon class="fil0" points="6852.45,11839.46 6408.41,11270.12 6828.58,10958.3 6895.77,11044.43 6577.76,11280.41 6694.07,11429.53 6988.36,11211.12 7051.8,11292.46 6757.51,11510.87 6887.49,11677.51 7211.21,11437.28 7278.4,11523.4 "/>
      <path class="fil0" d="M7633.67 11301.83l-74.05 -762.83 122.37 -59.26 579.15 518.21 -123.28 59.71 -148 -139.76 -262.19 127 24.7 199.46 -118.7 57.47zm41.01 -680.97l0 0 40.89 323.62 200.55 -97.12 -238.69 -227.84 -2.75 1.34z"/>
      <polygon class="fil0" points="10494.57,10572.71 10533.34,9858.33 11060.56,9885.53 11054.7,9993.6 10655.69,9973 10645.55,10160.11 11014.82,10179.17 11009.3,10281.22 10640.02,10262.16 10628.65,10471.27 11034.86,10492.23 11029,10600.29 "/>
      <polygon class="fil0" points="11523.46,10672.67 11703.78,9979.24 11835.78,10011.89 12028.96,10603.39 12161.78,10092.54 12280.28,10121.85 12099.98,10815.27 11968.53,10782.78 11777.54,10192.84 11774.55,10192.1 11641.96,10701.98 "/>
      <polygon class="fil0" points="12611.72,11000.46 12925.8,10353.99 13402.93,10574.54 13355.4,10672.32 12994.33,10505.41 12912.07,10674.73 13246.22,10829.19 13201.35,10921.55 12867.18,10767.08 12775.27,10956.3 13142.84,11126.22 13095.31,11224.01 "/>
      <path class="fil0" d="M13530.17 11477.3l434.05 -576.66 282.34 202.2c64.02,45.83 102.36,94.24 115.03,145.14 12.66,50.9 0.33,101.11 -36.94,150.67 -56.35,74.84 -125.39,99.96 -207.11,75.4l-1.25 1.61c52.45,49.98 51.09,111.59 -4.01,184.82 -59.18,78.61 -86.49,136.92 -81.99,174.95l-110.94 -79.45c2.05,-24.2 18.07,-56.22 48.1,-96.06 41.71,-55.46 63.17,-99.77 64.34,-132.91 1.11,-36.5 -21.22,-71.15 -67.04,-103.95l-152.35 -109.09 -178.71 237.45 -103.52 -74.12zm475.54 -420.17l0 0 -135.56 180.11 169.75 121.56c67.32,48.21 124.09,41.64 170.3,-19.75 44.18,-58.68 32.04,-112.54 -36.42,-161.55l-168.07 -120.37z"/>
      <path class="fil0" d="M15110.59 12373.87l-287.24 251.83 -54.93 -59.62 51.14 -70.42c-50.98,0.66 -93.51,-6.28 -127.62,-20.82 -34.12,-14.55 -66.52,-38.47 -97.17,-71.75 -71.42,-77.51 -100.6,-164.64 -87.53,-261.38 11.81,-92.11 57.95,-173.42 138.45,-243.97 80.47,-70.53 168.5,-106.87 264.17,-108.98 99.49,-1.93 184.95,35.86 256.37,113.37 55.82,60.61 86.72,125.12 92.69,193.55 7.17,72.74 -15.83,138.7 -69.02,197.9l-83.77 -90.93c30.52,-34.82 43.09,-74.12 37.74,-117.92 -4.56,-40.92 -23.07,-79.02 -55.57,-114.29 -48.98,-53.17 -108.63,-75.41 -178.91,-66.77 -61.05,7.7 -120.35,36.78 -177.88,87.24 -57.58,50.45 -93.51,104.87 -107.85,163.22 -16.25,66.33 0.1,126.54 49.04,180.65 42.94,47.64 89.61,72.52 139.93,74.69 50.3,2.13 99.35,-16.84 147.11,-56.92l-130.44 -141.6 72.58 -63.61 208.71 226.53z"/>
      <polygon class="fil0" points="15228.76,13209.45 15476.57,13067.07 15721.02,12615.04 15796.6,12740.23 15611.88,13066.09 15992.08,13063.97 16065.04,13184.84 15541.75,13175 15293.89,13317.36 "/>
      <path class="fil0" d="M6171.2 17353.8l0 38.68c0,174.54 -55.13,300.32 -165.37,377.38 -110.27,77.08 -290.71,115.61 -541.35,115.61l-174.44 0c-272.18,0 -462.98,-40.33 -572.34,-121 -109.42,-80.65 -164.1,-222.65 -164.1,-425.95l0 -277.96c0,-203.32 54.68,-345.29 164.1,-425.96 109.36,-80.66 300.16,-120.99 572.34,-120.99l142.13 0c270.45,0 459.08,35.38 565.91,106.15 106.78,70.77 160.2,195.51 160.2,374.22l0 26.09 -514.21 0 0 -24.29c0,-61.18 -20.27,-104.34 -60.74,-129.54 -40.49,-25.18 -111.11,-37.79 -211.88,-37.79 -111.11,0 -185.2,15 -222.22,44.99 -37.05,30 -55.56,102.26 -55.56,216.79l0 220.39c0,113.96 18.51,185.77 55.56,215.46 37.02,29.7 111.11,44.52 222.22,44.52 104.2,0 176.13,-13.63 215.76,-40.91 39.61,-27.3 59.43,-75.72 59.43,-145.29l0 -30.6 524.56 0z"/>
      <polygon class="fil0" points="6903.82,17869.27 6903.82,16529.79 7393.51,16529.79 7393.51,17030.86 8031.72,17030.86 8031.72,16529.79 8521.42,16529.79 8521.42,17869.27 8031.72,17869.27 8031.72,17345.71 7393.51,17345.71 7393.51,17869.27 "/>
      <polygon class="fil0" points="9168.56,17869.27 9168.56,16529.79 9772.99,16529.79 9772.99,17869.27 "/>
      <polygon class="fil0" points="10539.04,17869.27 10539.04,16529.79 11148.86,16529.79 11148.86,17558.02 12156.64,17558.02 12156.64,17869.27 "/>
      <path class="fil0" d="M12559.69 17060.56c0,-203.32 51.17,-345.29 153.57,-425.96 102.37,-80.66 280.92,-120.99 535.69,-120.99l236.67 0c255.56,0 434.72,40.47 537.5,121.43 102.77,80.97 154.18,222.81 154.18,425.52l0 277.96c0,202.71 -51.41,344.55 -154.18,425.5 -102.78,80.96 -281.94,121.45 -537.5,121.45l-236.67 0c-254.77,0 -433.32,-40.33 -535.69,-121 -102.4,-80.65 -153.57,-222.65 -153.57,-425.95l0 -277.96zm493.63 29.67l0 0 0 220.39c0,114.57 17.31,186.54 51.93,215.91 34.62,29.4 107.07,44.07 217.38,44.07l89.34 0c110.29,0 183.14,-14.97 218.54,-44.96 35.45,-29.99 53.16,-101.67 53.16,-215.02l0 -220.39c0,-113.93 -17.71,-186.05 -53.16,-216.34 -35.4,-30.29 -108.25,-45.44 -218.54,-45.44l-89.34 0c-109.52,0 -181.77,15 -216.8,44.99 -35,30 -52.51,102.26 -52.51,216.79z"/>
      <polygon class="fil0" points="14865.85,17869.27 14865.85,16529.79 15533.4,16529.79 16054.58,17524.72 16054.58,16529.79 16483.46,16529.79 16483.46,17869.27 15814.81,17869.27 15293.62,16865.35 15293.62,17869.27 "/>
      <polygon class="fil0" points="9457.69,19418.62 9457.69,19084.77 9704.07,19084.77 9704.07,19135.28 9517.6,19135.28 9517.6,19222.71 9690.16,19222.71 9690.16,19270.4 9517.6,19270.4 9517.6,19368.14 9707.43,19368.14 9707.43,19418.62 "/>
      <path class="fil0" d="M9739.06 19307.34l59.92 0c0,24.31 8.47,42.7 25.41,55.18 15.01,10.92 35.47,16.35 61.36,16.35 24.6,0 43.3,-5.28 56.08,-15.89 10.86,-9.04 16.29,-20.57 16.29,-34.59 0,-20.57 -9.42,-34.29 -28.29,-41.17 -2.54,-0.93 -36.59,-10.11 -102.09,-27.56 -50.5,-13.42 -75.74,-41.62 -75.74,-84.65 0,-31.47 13.1,-56.25 39.31,-74.35 23.33,-15.89 51.92,-23.82 85.81,-23.82 37.38,0 68.22,9.04 92.51,27.11 25.89,19.64 38.83,46.14 38.83,79.47l-59.92 0c-2.56,-39.26 -27.18,-58.9 -73.82,-58.9 -16.63,0 -30.53,2.96 -41.7,8.89 -14.07,7.79 -21.1,19.33 -21.1,34.6 0,21.5 13.59,35.76 40.75,42.76 27.15,7.03 60.07,15.68 98.74,25.97 21.41,6.24 38.19,17.76 50.34,34.59 10.85,15.29 16.3,32.11 16.3,50.51 0,34.9 -14.23,61.71 -42.67,80.41 -24.61,16.22 -55.78,24.33 -93.47,24.33 -41.55,0 -74.94,-9.52 -100.18,-28.53 -27.8,-20.87 -42.04,-51.11 -42.67,-90.71z"/>
      <polygon class="fil0" points="10037.7,19135.28 10037.7,19084.77 10314.76,19084.77 10314.76,19135.28 10205.95,19135.28 10205.95,19418.62 10146.03,19418.62 10146.03,19135.28 "/>
      <polygon class="fil0" points="10351.19,19418.62 10351.19,19355.5 10417.81,19355.5 10417.81,19418.62 "/>
      <path class="fil0" d="M10832.44 19370.94l0 47.68 -229.14 0c0.33,-49.55 24.94,-90.86 73.84,-123.92 15.33,-9.95 30.5,-19.94 45.52,-29.91 17.27,-11.83 30.21,-23.07 38.84,-33.66 10.85,-13.72 16.45,-28.35 16.77,-43.95 0.31,-14.98 -3.2,-27.59 -10.55,-37.87 -9.58,-13.42 -24.91,-20.12 -46.02,-20.12 -36.74,0 -55.93,27.29 -57.52,81.82l-54.65 0c0,-37.39 9.92,-67.47 29.73,-90.23 20.76,-24 49.37,-36.01 85.8,-36.01 37.07,0 65.36,11.55 84.85,34.6 15.34,18.39 23.01,40.38 23.01,65.94 0,39.58 -24.93,76.36 -74.78,110.33 -18.54,12.18 -37.08,24.33 -55.61,36.48 -18.2,13.72 -29.4,26.64 -33.55,38.82l163.46 0z"/>
      <path class="fil0" d="M10984.38 19084.77c43.47,0 74.79,19.02 93.99,57.06 14.66,28.68 22.02,66.38 22.02,113.15 0,46.75 -7.36,84.47 -22.02,113.16 -19.2,38.02 -50.52,57.03 -93.99,57.03 -43.44,0 -74.76,-19.01 -93.93,-57.03 -14.7,-28.69 -22.05,-66.41 -22.05,-113.16 0,-46.77 7.35,-84.47 22.05,-113.15 19.17,-38.04 50.49,-57.06 93.93,-57.06zm0 295.98l0 0c40.93,0 61.37,-41.92 61.37,-125.77 0,-83.86 -20.44,-125.79 -61.37,-125.79 -40.88,0 -61.34,41.93 -61.34,125.79 0,83.85 20.46,125.77 61.34,125.77z"/>
      <path class="fil0" d="M11143.05 19187.64l0 -42.07c24.93,0.3 46.01,-3.74 63.26,-12.16 19.2,-9.67 30.7,-23.69 34.54,-42.09l44.58 0 0 327.3 -59.92 0 0 -230.98 -82.46 0z"/>
      <path class="fil0" d="M11493.47 19266.65l0 -39.74c20.76,0.94 37.7,-2.48 50.81,-10.29 15.64,-8.71 23.47,-22.43 23.47,-41.13 0,-13.72 -4.86,-24.86 -14.63,-33.45 -9.74,-8.56 -22.29,-12.85 -37.62,-12.85 -17.88,0 -31.79,6.64 -41.69,19.88 -9.91,13.24 -14.55,28.92 -13.91,46.99l-54.66 0c1.61,-32.73 12,-59.23 31.17,-79.5 20.46,-21.18 47.14,-31.79 80.07,-31.79 28.44,0 52.56,7.33 72.35,21.99 22.38,16.2 33.58,38.02 33.58,65.44 0,35.86 -15.83,59.23 -47.48,70.15l0 0.93c18.85,3.74 33.74,13.02 44.58,27.81 10.88,14.83 16.32,32.81 16.32,54.01 0,29.92 -11.82,54.25 -35.49,72.95 -22.38,18.07 -50.16,27.12 -83.39,27.12 -37.7,0 -66.95,-10.44 -87.72,-31.33 -19.49,-19.95 -29.56,-47.54 -30.21,-82.76l54.64 0c-0.62,20.57 4.48,37.09 15.33,49.57 11.2,13.4 27.18,20.1 47.96,20.1 18.85,0 34.26,-5.22 46.25,-15.66 11.99,-10.44 17.97,-24.7 17.97,-42.79 0,-39.58 -29.22,-58.12 -87.7,-55.65z"/>
      <path class="fil0" d="M8691.33 10844.2l-194.64 -689.75 337.7 -90.66c76.57,-20.57 139.27,-19.9 188.06,1.97 48.8,21.88 81.53,62.45 98.28,121.71 25.25,89.53 2.65,157.93 -67.78,205.24l0.52 1.95c72.72,-9.14 121.43,30.1 146.16,117.68 26.53,94.04 56.49,151.09 89.87,171.23l-132.7 35.62c-18.2,-16.57 -34.01,-48.69 -47.43,-96.37 -18.74,-66.31 -41.07,-110.21 -67,-131.65 -28.67,-23.49 -70.39,-27.88 -125.17,-13.16l-182.23 48.94 80.16 283.99 -123.8 33.26zm-43.05 -624.45l0 0 60.79 215.42 203.04 -54.52c80.52,-21.62 110.44,-69.13 89.72,-142.57 -19.8,-70.19 -70.65,-94.3 -152.51,-72.3l-201.04 53.97z"/>
      <polygon class="fil0" points="11043.22,19841.67 10050.29,19841.67 10050.29,19774.87 11043.22,19774.87 "/>
      <path class="fil0" d="M11747.05 15120.58c32.29,-6.19 51.9,-9.98 71.53,-13.7 52.71,-9.99 95.22,17.19 105.21,67.24 9.78,48.91 -19.36,94.94 -70.06,103.12 -181.15,29.22 -362.04,60.81 -544.05,83.9 -277.74,35.24 -556.99,54.58 -837.35,48.05 -303.02,-7.06 -604.22,-35.66 -903.72,-80.94 -89.36,-13.5 -178.41,-29.09 -267.46,-44.47 -60.79,-10.51 -104.36,-43.14 -123.58,-101.24 -25.16,-76.04 16.18,-133.75 98.54,-140.21 7.65,-0.59 15.38,-0.07 26.05,-0.07 -15.2,-139.74 34.74,-269.4 49.48,-403.29 10.32,-93.58 2,-189.12 2,-285.73 -34.08,-6.79 -61.65,-12 -89.08,-17.82 -50.58,-10.74 -80.02,-54.22 -70.18,-103.12 9.98,-49.59 52.8,-76.54 105.79,-66.85 13.05,2.39 26.26,3.93 45,6.69 8.11,-277.21 -26.97,-551.16 13.47,-831.15 -29.01,4.04 -45.75,5.95 -62.34,8.77 -50.01,8.51 -92.64,-19.5 -102.04,-67.44 -9.56,-48.77 21.54,-93.17 71.59,-102.22 88.11,-15.92 88.23,-15.92 88.27,-104.01 0.09,-191.07 0.03,-382.14 0.03,-578.79 -18.64,4.77 -29.9,6.93 -40.65,10.52 -72.46,24.17 -132.18,-11.33 -143.73,-85.68 -13.82,-89.07 47.87,-176.42 139.11,-193.69 288.09,-54.53 578.72,-89.37 871.4,-110.68 297.65,-21.66 595.16,-19.25 891.26,11.72 260.3,27.24 519.09,68.43 778.36,104.73 47.41,6.64 74.55,40.57 75.38,84.53 0.85,45.27 -27.53,78.6 -75.82,89.01 -87.57,18.88 -89.54,18.93 -86.99,106.78 2.35,81.55 10.14,162.95 14.24,244.48 1.53,30.16 0.66,60.58 -1.37,90.74 -3.46,51.27 -10.47,102.35 -12.72,153.64 -2.25,51.18 -0.5,102.52 -0.5,159.83 27.01,5.04 58.25,11.02 89.55,16.67 44.8,8.09 73.85,41.81 73.69,85.89 -0.16,43.69 -29.58,78.66 -74.38,85.5 -33.02,5.03 -66.47,7.44 -101.31,11.2 0,73.74 -3.35,147.29 0.76,220.46 7.07,126.31 22.13,252.26 27.09,378.61 2.34,59.66 -10.95,119.91 -17.49,183.08 29.54,5.87 59.6,11.85 89.67,17.82 46.03,9.14 74.44,41.09 75.6,85.03 1.21,45.91 -26.37,78.58 -74.97,88.81 -6.61,1.39 -13.19,2.97 -19.84,4.11 -79.88,13.66 -81.75,13.84 -73.16,93.22 12.47,115.31 27.81,230.32 42.21,345.42 9,71.81 2.53,141.27 -22.57,210.21 -14.41,39.59 -19.18,82.5 -29.92,131.32zm-313.22 -923.44l0 0c-0.06,-4.12 -0.13,-8.23 -0.2,-12.35 -80.68,0 -161.37,1.1 -242.02,-0.35 -61.94,-1.13 -124.57,-0.7 -185.52,-9.75 -58.63,-8.71 -114.33,-10.69 -171.88,5.49 -87.12,24.49 -175.08,25.77 -266.62,-2.21 30.15,-145.87 5.3,-289.72 -3.56,-434.13 -3.74,-60.93 -5.9,-125.88 11.34,-183.25 31.14,-103.61 26.79,-205.59 12.71,-309.06 -1.35,-9.92 -18.9,-25.01 -29.24,-25.26 -51.27,-1.23 -102.88,-0.77 -153.95,3.64 -161.47,13.94 -322.69,30.45 -484.11,44.91 -112.9,10.12 -225.91,19.21 -338.99,27.16 -28.59,2.02 -34.92,14.1 -35,39.92 -0.52,187.31 -3.41,374.62 -3.56,561.93 -0.07,88.34 4.8,176.67 6.29,265.03 0.47,27.99 9.51,43.84 41.09,45.03 71.52,2.68 143.04,6.22 214.43,11.15 69.94,4.85 141.61,4.02 209.17,19.54 143.34,32.92 288.13,41.1 434.21,44.92 245.42,6.43 488.83,-12.87 731.02,-49.6 85.01,-12.89 169.61,-28.43 254.39,-42.76zm-841.33 -1922.3l0 0c-43.08,7.14 -73.55,5.63 -97.19,17.3 -82.12,40.54 -169.19,44.99 -257.19,38.14 -232.8,-18.1 -452.58,43.03 -672.8,101.77 -11.72,3.13 -27.98,19.46 -28.15,29.86 -2.13,124.44 -30.65,249.37 7.98,373.36 8.03,25.76 6.23,54.87 6.33,82.45 0.23,59.36 -1.46,118.72 -1.85,178.08 -0.08,11.04 2.27,22.1 3.86,36.4 84.44,-12.54 164.96,-21.3 244.03,-36.96 130.82,-25.9 259.65,-64.49 395.92,-41.42 26.42,4.47 54,5.54 80.84,4.19 425.7,-21.48 848.19,10.08 1268.94,71.6 7.81,1.14 15.93,0.14 23.9,0.14 -52.13,-21.76 -104.21,-39.96 -157.73,-52.19 -103.47,-23.65 -206.91,-50.4 -311.99,-63.3 -68.41,-8.39 -136.26,-8.21 -200.04,-39.88 -24.27,-12.05 -54.65,-14.62 -82.63,-16.88 -59.24,-4.79 -118.72,-7.83 -178.15,-8.89 -25.74,-0.46 -37.97,-5.26 -40.98,-33.8 -11.83,-112.55 -29.11,-224.59 -39.21,-337.27 -3.89,-43.34 4.54,-88.04 9.99,-131.8 6.59,-52.9 15.97,-105.47 26.12,-170.9zm-1027.98 2112.39l0 0c0,20.61 -0.69,34.94 0.1,49.2 8.16,147.39 14.41,294.92 25.81,442.07 5.36,69.38 20.49,138.05 31.66,206.96 3.35,20.69 11.74,35.22 37.44,38.68 57.45,7.73 114.08,22.39 171.68,27.65 80.64,7.37 162.72,2.75 242.63,13.89 188.3,26.27 373.91,65.87 565.89,71.39 277.85,7.99 552.56,-0.01 832.89,-84.08 -50.45,0 -89.92,-0.28 -129.39,0.06 -93.22,0.78 -186.43,2.31 -279.66,2.67 -74.24,0.3 -148.63,1.96 -222.7,-1.82 -77.98,-3.98 -155.79,-12.65 -233.29,-22.18 -10.1,-1.23 -24.54,-19.03 -25.86,-30.39 -14.26,-122.58 -3.72,-244.19 10.53,-366.58 10.09,-86.68 1.96,-175.37 1.96,-262.27 -50.03,0 -95.68,-0.44 -141.32,0.09 -90.31,1.04 -181.42,10.66 -270.71,2.05 -128.57,-12.39 -255.69,-38.63 -383.66,-57.49 -75.97,-11.19 -152.38,-19.58 -234,-29.9z"/>
      <path class="fil1" d="M5184.03 14294.22c372.24,0 674.04,301.06 674.04,672.46 0,371.4 -301.8,672.45 -674.04,672.45 -372.24,0 -674.01,-301.05 -674.01,-672.45 0,-371.4 301.77,-672.46 674.01,-672.46z"/>
      <path class="fil2" d="M5180.32 14743.15c124.33,0 225.12,102.01 225.12,227.88 0,125.85 -100.79,227.88 -225.12,227.88 -124.33,0 -225.11,-102.03 -225.11,-227.88 0,-125.87 100.78,-227.88 225.11,-227.88z"/>
      <path class="fil1" d="M15815.97 14294.22c372.24,0 674.02,301.06 674.02,672.46 0,371.4 -301.78,672.45 -674.02,672.45 -372.24,0 -674.03,-301.05 -674.03,-672.45 0,-371.4 301.79,-672.46 674.03,-672.46z"/>
      <path class="fil2" d="M15812.26 14743.15c124.33,0 225.12,102.01 225.12,227.88 0,125.85 -100.79,227.88 -225.12,227.88 -124.33,0 -225.11,-102.03 -225.11,-227.88 0,-125.87 100.78,-227.88 225.11,-227.88z"/>
    </g>
  </g>
</svg>